<?xml version="1.0" encoding="utf-8"?>
<!-- Generator: Adobe Illustrator 25.0.1, SVG Export Plug-In . SVG Version: 6.00 Build 0)  -->
<svg version="1.1" id="圖層_1" xmlns="http://www.w3.org/2000/svg" xmlns:xlink="http://www.w3.org/1999/xlink" x="0px" y="0px"
	 viewBox="0 0 1469.1 1469.11" style="enable-background:new 0 0 1469.1 1469.11;" xml:space="preserve">
<style type="text/css">
	.st0{fill:#231815;}
	.st1{fill:#A18186;}
	.st2{fill:#FFFFFF;}
</style>
<g>
	<g>
		<g>
			<path class="st0" d="M734.55,175.57c75.53,0,148.72,14.76,217.54,43.87c33.09,14,65.02,31.33,94.9,51.51
				c29.63,20.02,57.5,43.01,82.83,68.35c25.33,25.33,48.33,53.2,68.35,82.83c20.18,29.88,37.52,61.8,51.51,94.89
				c29.11,68.82,43.87,142.01,43.87,217.54c0,75.53-14.76,148.72-43.87,217.54c-14,33.09-31.33,65.02-51.51,94.89
				c-20.02,29.63-43.01,57.5-68.35,82.83c-25.33,25.33-53.2,48.33-82.83,68.35c-29.88,20.18-61.8,37.51-94.9,51.51
				c-68.82,29.11-142.01,43.87-217.54,43.87c-75.53,0-148.71-14.76-217.53-43.87c-33.09-14-65.02-31.33-94.89-51.51
				c-29.63-20.02-57.5-43.01-82.83-68.35c-25.33-25.33-48.33-53.2-68.35-82.83c-20.19-29.88-37.52-61.8-51.51-94.89
				c-29.11-68.82-43.87-142.01-43.87-217.54c0-75.53,14.76-148.72,43.87-217.54c14-33.09,31.33-65.02,51.51-94.89
				c20.02-29.63,43.01-57.5,68.35-82.83c25.33-25.33,53.2-48.33,82.83-68.35c29.88-20.18,61.8-37.52,94.89-51.51
				C585.83,190.33,659.02,175.57,734.55,175.57 M734.55,25.9c-391.37,0-708.66,317.28-708.66,708.66
				c0,391.38,317.29,708.66,708.66,708.66c391.38,0,708.67-317.27,708.67-708.66C1443.21,343.17,1125.93,25.9,734.55,25.9
				L734.55,25.9z"/>
		</g>
	</g>
	<path class="st1" d="M1216.46,698.96c-9.87-43.68-31.68-82.37-65.4-116.11c-32.7-32.69-67.9-53.11-105.6-61.23
		c-37.7-8.13-76.35-2.95-115.96,15.55c9.34-28.9,13-54.2,10.98-75.86c-3.54-38.67-22.68-75.41-57.44-110.17
		c-33.72-33.72-71.39-53.97-113.02-60.76c-68.31-10.44-137.71,18.52-208.15,86.9L319.58,619.56l316.48,316.48l232.35-232.36
		l160.38,160.38l-265.17,265.17l92.38,92.39l256.49-256.5c28.92-28.92,53.16-58.31,72.71-88.16c19.56-29.84,31.46-60.82,35.74-92.89
		C1224.96,755.85,1223.48,727.47,1216.46,698.96z"/>
	<g>
		<g>
			<polygon class="st1" points="868.41,758.22 636.06,990.58 292.31,646.83 153.52,508.05 47.68,613.88 530.22,1096.41 
				636.06,1202.25 736.36,1101.95 974.25,864.05 			"/>
		</g>
	</g>
	<g>
		<g>
			<path class="st1" d="M734.55,175.57c75.53,0,148.72,14.76,217.54,43.87c33.09,14,65.02,31.33,94.89,51.51
				c29.63,20.02,57.5,43.01,82.83,68.35c25.33,25.33,48.33,53.2,68.35,82.83c20.18,29.88,37.52,61.8,51.51,94.89
				c29.11,68.82,43.87,142.01,43.87,217.54c0,75.53-14.76,148.72-43.87,217.54c-14,33.09-31.33,65.02-51.51,94.89
				c-20.02,29.63-43.01,57.5-68.35,82.83c-25.33,25.33-53.2,48.33-82.83,68.35c-29.88,20.18-61.8,37.52-94.89,51.51
				c-68.82,29.11-142.01,43.87-217.54,43.87c-75.53,0-148.72-14.76-217.53-43.87c-33.09-14-65.02-31.33-94.89-51.51
				c-29.63-20.02-57.5-43.01-82.83-68.35c-25.33-25.33-48.33-53.2-68.35-82.83c-20.18-29.88-37.52-61.8-51.51-94.89
				c-29.11-68.82-43.87-142.01-43.87-217.54c0-75.53,14.76-148.72,43.87-217.53c14-33.09,31.33-65.02,51.51-94.89
				c20.02-29.63,43.01-57.5,68.35-82.83c25.33-25.33,53.2-48.33,82.83-68.35c29.88-20.18,61.8-37.52,94.89-51.51
				C585.83,190.33,659.02,175.57,734.55,175.57 M734.55,25.9c-391.37,0-708.66,317.28-708.66,708.66
				c0,391.38,317.29,708.66,708.66,708.66c391.38,0,708.66-317.27,708.66-708.66C1443.21,343.17,1125.93,25.9,734.55,25.9
				L734.55,25.9z"/>
		</g>
	</g>
</g>
</svg>
